<mxfile host="app.diagrams.net" modified="2024-03-05T02:01:45.413Z" agent="Mozilla/5.0 (Windows NT 10.0; Win64; x64) AppleWebKit/537.36 (KHTML, like Gecko) Chrome/122.0.0.0 Safari/537.36" version="23.1.7" etag="nse2E3OvZxd6RiE7gAOy" type="github">
  <diagram name="Page-1" id="v8Wk_x3FYkoIOAU3ULgT">
    <mxGraphModel>
      <root>
        <mxCell id="0" />
        <mxCell id="1" parent="0" />
      </root>
    </mxGraphModel>
  </diagram>
</mxfile>
